PathFileType	4	(X/Y/Z)	C:/Users/beibeiliu/ov580/test_trc\sequence.23_training_dense_right.trc
DataRate	CameraRate	NumFrames	NumMarkers	Units	OrigDataRate	OrigDataStartFrame	OrigNumFrames
120	120	15	19	mm	120	30	59
Frame#	Time	ThumbCMC			ThumbMCP			ThumbIP			ThumbTip			IndexMCP			IndexPIP			IndexTip			MiddleMCP			MiddlePIP			MiddleTip			RingMCP			RingPIP			RingTip			PinkyMCP			PinkyPIP			PinkyTip			BackHand1			BackHand2			BackHand3	
		X0	Y0	Z0	X1	Y1	Z1	X2	Y2	Z2	X3	Y3	Z3	X4	Y4	Z4	X5	Y5	Z5	X6	Y6	Z6	X7	Y7	Z7	X8	Y8	Z8	X9	Y9	Z9	X10	Y10	Z10	X11	Y11	Z11	X12	Y12	Z12	X13	Y13	Z13	X14	Y14	Z14	X15	Y15	Z15	X16	Y16	Z16	X17	Y17	Z17	X18	Y18	Z18	
29	0.241667	97.0784	50.6668	150.211	76.4092	37.5959	126.526	63.9476	34.3692	98.7777	69.2759	26.8695	73.7083	108.892	62.9896	75.7339	93.4882	52.6439	57.3436	73.8118	28.6136	56.8899	123.194	48.5631	68.7996	102.327	30.5207	53.0187	74.5986	11.2344	66.0591	135.269	32.3061	73.2951	111.627	17.1553	56.0166	86.4384	3.00892	71.0658	144.04	17.205	82.9529	122.238	3.18384	64.9464	97.286	-7.99255	75.9298	153.309	40.6116	124.067	158.055	36.2513	155.926	131.37	63.1633	145.086	
30	0.25	92.5386	62.1305	150.516	66.9764	53.9705	131.247	53.1724	50.2582	109.753	51.3207	41.0501	86.9541	97.5597	69.5455	79.2497	78.0403	55.2974	60.8523	54.5794	39.0699	63.9432	107.302	47.2578	70.3919	80.3293	34.0987	56.5731	54.0609	20.3465	74.4489	114.682	28.8665	71.0864	86.9304	20.2489	60.5111	61.8053	9.13402	83.3208	119.932	13.8657	82.3089	94.3041	7.14617	70.733	70.1603	3.22032	86.2058	141.92	33.8611	121.47	147.061	32.6611	149.759	130.515	62.7285	141.476	
31	0.258333	100.431	73.6528	151.931	69.8978	74.0468	132.569	54.3567	73.9792	113.544	45.5754	63.5306	89.7156	101.376	72.9745	79.8888	73.4929	70.3616	62.3925	46.0277	58.897	71.2712	100.94	52.3697	68.6393	71.3565	46.8149	59.0225	40.4512	46.0144	80.7426	100.811	34.6187	71.2931	71.2206	30.7781	64.3329	48.1451	34.4731	83.5024	103.673	14.4059	83.0815	76.985	16.502	74.0144	53.1575	25.612	91.5031	133.766	33.3283	118.148	144.479	31.6717	148.39	134.696	59.7221	136.503	
32	0.266667	119.647	82.4425	152.172	88.3611	91.6945	131.671	71.0862	95.6556	110.521	59.4023	83.3925	90.2375	114.708	75.3176	77.9216	84.6248	83.8778	61.8662	59.2136	83.9566	72.0048	107.881	56.7808	71.4188	76.531	65.3923	59.5624	47.8076	68.9345	80.3646	101.107	38.5956	73.5407	72.818	47.0048	64.2966	47.9068	56.7813	85.8028	97.9305	21.1317	86.246	69.8389	26.9606	75.6009	51.2917	48.5623	92.8707	134.116	25.3552	118.068	141.022	21.0286	145.26	144.282	54.221	130.334	
33	0.275	142.458	78.4112	145.477	118.825	97.3372	129.743	102.536	104.525	107.254	87.2154	96.5565	82.9625	134.475	72.5655	69.9272	111.056	83.1716	56.7386	83.4212	92.5984	67.2772	120.811	50.6528	69.6483	95.8506	68.6022	55.0797	71.9254	86.3748	71.0928	107.874	37.7193	69.8437	84.6639	52.6114	60.9406	65.0841	70.4566	76.7365	100.397	23.6765	83.9939	78.3085	37.2331	72.6719	60.3383	64.5004	83.3948	139.571	19.2093	117.654	145.358	17.1029	143.889	159.425	46.9836	131.923	
34	0.283333	159.462	66.456	138.95	141.215	89.0497	119.076	128.937	93.9042	100.023	113.317	91.882	74.362	151.184	52.4959	69.1103	132.813	73.3471	50.1961	110.296	87.7581	57.5578	139.13	42.5005	62.7443	117.824	58.7208	49.8369	94.8381	84.1761	64.9583	123.647	28.7717	69.4504	103.437	44.5663	56.7298	88.0617	74.8941	67.4724	110.321	18.0238	83.3205	92.0135	34.3841	69.1358	82.2647	62.3662	71.2423	142.936	8.74452	121.166	149.809	7.91483	149.259	169.54	31.2354	128.831	
35	0.291667	176.703	48.0398	139.088	162.238	69.0757	110.334	153.691	77.6389	88.363	139.021	68.8402	68.0916	174.191	28.6121	63.9915	155.994	41.9431	48.2756	138.08	66.1774	48.3509	156.088	16.3794	60.583	138.376	36.2547	44.9455	118.58	62.9477	54.8776	137.95	5.27607	70.1882	124.787	28.3778	50.9135	109.371	57.3031	58.6523	125.177	0.72959	79.9908	113.065	15.2176	65.6738	103.872	45.7535	63.0696	157.448	-8.45965	122.387	158.143	-7.36832	154.321	180.91	8.13552	132.325	
36	0.3	192.056	30.331	134.266	179.893	48.9318	109.935	174.71	54.3683	78.7326	162.95	49.0541	59.5933	189.921	0.246935	68.3793	180.516	16.9718	45.8196	160.6	39.0408	44.3089	177.018	-6.07619	63.3766	161.343	11.2762	44.8802	146.859	45.3742	46.9591	156.592	-15.3384	71.6281	144.464	6.27856	49.3342	136.098	36.3928	51.9585	138.558	-19.2312	84.8911	129.02	-0.387288	59.718	127.191	22.841	53.7262	166.168	-23.2894	126.543	167.638	-20.5274	153.048	192.733	-8.49231	139.676	
37	0.308333	202.092	24.5299	141.366	194.942	41.3424	110.059	192.119	42.5436	77.8493	183.212	34.3997	57.5162	212.187	-10.0717	76.9719	201.822	1.11781	51.7102	187.325	27.1743	42.1588	198.265	-20.5871	69.6934	184.087	-3.92912	47.11	167.182	27.5497	46.3417	179.747	-30.1956	75.6649	169.948	-9.51436	50.1	161.926	18.2795	49.2998	160.164	-33.0708	84.4238	154.604	-16.8474	59.701	152.833	10.5932	52.0405	181.489	-33.8562	133.52	176.916	-29.2713	158.315	206.968	-15.7218	141.739	
38	0.316667	207.832	34.2194	146.618	199.871	46.417	113.535	200.632	46.7148	82.4532	196.08	39.0726	62.5326	233.481	0.701047	81.9027	225.148	11.3631	56.6883	202.891	29.4246	46.361	222.143	-15.5666	78.636	213.302	-0.460009	52.5409	189.524	27.3119	46.6526	209.433	-24.5627	78.1934	198.104	-14.1042	54.5851	183.308	15.0202	49.944	189.827	-33.316	90.2235	183.267	-24.6058	64.5337	176.195	1.75446	53.1488	201.496	-26.7982	138.088	195.298	-21.7673	162.694	221.399	-5.6174	150.984	
39	0.325	203.026	52.8582	148.911	195.543	57.5279	112.493	196.726	56.8662	86.1849	195.971	50.5137	65.6391	245.006	29.5276	93.8756	238.493	34.62	63.5738	212.568	44.3757	47.73	242.848	11.565	82.7297	226.841	18.9309	54.7386	195.813	34.5072	49.9086	230.417	-7.72775	81.6046	219.548	3.42374	57.0491	194.448	23.8596	51.401	217.328	-17.3923	92.8223	209.384	-11.7344	64.4992	191.195	10.1282	53.3429	218.746	-13.1056	140.389	205.262	-10.4832	167.252	229.309	17.9928	155.921	
40	0.333333	190.018	63.042	147.411	179.288	66.1684	115.374	180.932	69.2425	87.6871	188.201	61.0848	65.5959	238.866	57.6039	95.05	229.813	57.0212	65.5381	200.807	57.7714	48.4836	241.891	35.639	86.3836	229.376	41.892	59.199	193.438	45.5777	49.4139	236.603	15.4158	87.4722	225.583	23.4251	58.7129	196.196	30.575	49.6281	228.533	-1.27577	92.5558	219.986	4.84749	64.5415	196.693	17.4685	51.7228	226.545	10.2131	141.245	213.747	5.42654	167.765	221.591	36.874	156.796	
41	0.341667	169.179	64.4307	145.611	155.352	67.7993	114.823	160.527	69.9281	85.5194	167.343	66.5784	60.6936	215.929	80.578	92.1157	206.649	77.9494	62.2146	182.818	69.7945	47.4409	226.184	61.5831	81.3954	211.861	57.1978	54.6166	177.267	48.0307	47.0462	229.295	38.6403	81.6355	217.26	41.7026	57.1167	182.049	37.3528	48.3991	225.78	17.013	91.7676	215.05	24.2076	62.0412	191.327	24.1705	49.3358	221.421	26.9172	141.046	208.85	20.108	161.669	205.723	55.3665	155.592	
42	0.35	145.626	57.2627	140.668	131.796	53.4064	111.402	130.679	58.9466	81.0083	139.687	57.6397	55.9147	182.542	85.2316	83.0096	173.689	81.2996	58.1891	153.844	62.7715	44.0932	199.139	69.8363	75.4957	187.51	63.0384	50.6922	156.938	43.2274	42.6795	205.656	53.5114	79.274	193.562	47.5457	51.2388	166.033	36.8736	45.2145	212.965	29.8612	86.6254	203.544	28.6491	59.25	174.473	23.4286	46.1626	205.572	40.5749	136.624	198.169	30.0471	158.222	182.932	62.8422	147.621	
43	0.358333	118.368	44.2427	138.905	110.141	33.4522	109.748	106.623	34.0582	82.1909	114.97	32.7701	59.4088	147.995	75.0223	80.974	135.535	66.7367	48.9052	124.412	42.6264	40.4729	165.097	64.9952	74.3434	152.462	53.9578	45.2748	133.142	26.1468	42.7455	179.514	51.8787	75.2747	165.057	38.3214	47.3292	145.71	15.1017	47.0558	192.297	33.7462	81.2691	179.101	26.8711	57.0555	155.025	9.51783	49.7743	182.349	46.0444	132.22	179.874	37.6593	155.987	157.259	57.8095	145.622	
